<svg version="1" xmlns="http://www.w3.org/2000/svg" width="1138.667" height="1138.667" viewBox="0 0 854.000000 854.000000"><path d="M453 6.9c0 .6.4 1.3 1 1.6.6.3.7-.1.4-.9-.7-1.8-1.4-2.1-1.4-.7zM456.8 13c1.1 1.9 4.5 8.3 7.6 14.2 3.2 6 6 10.8 6.2 10.8.9 0-11.7-23.9-13.8-26.2l-2-2.3 2 3.5zM532.2 22.2c2.9 5.7 5.4 10.7 5.6 11.1.3.5-1.9-.8-4.7-2.8-6.4-4.7-6.7-2.9-.7 5.2 17.9 24 19.4 26.5 29.2 46.3 5.5 11.3 14.4 28.5 19.7 38.2 5.3 9.8 9.7 18 9.7 18.2 0 .2 1.6 3.2 3.5 6.6 2.3 4 2.9 5.8 1.8 4.9-4.2-3.2-13.4-11-22.5-19.2-5.4-4.8-9.8-8.5-9.8-8.2 0 1.1 2.1 4.8 6.5 11.5 2.3 3.6 8 12.3 12.6 19.5 4.6 7.1 10.3 15.3 12.6 18.1 5 6.3 9.6 13.4 8.6 13.4-.5 0-4.2-.7-8.3-1.6-8.2-1.7-30.2-4.4-30.9-3.7-.9.7 21.2 22.3 32.9 32.2 12 10.2 36.5 29.2 40 31.1 2.7 1.4 2.6 3.2-.2 2.5-4.3-1-17.8-2.1-17.8-1.5 0 .4 3.3 1.9 7.3 3.5 9.2 3.6 28 12.9 33.3 16.6 4.1 2.8 4.1 2.9 5.2 11.6.6 4.8 1.4 13 1.8 18 .3 5.1 1 9.3 1.4 9.3 1 0 7.9-13.5 12-23.7 3.2-7.9 3.4-8.2 5.2-6.6 1 .9 1.8 1.3 1.8 1 0-1.3-4.4-12.6-8.8-22.2-6.1-13.9-17.2-41.3-17.2-42.8 0-.6.8 0 1.8 1.4 3 4.6 14.2 19.3 14.2 18.7 0-1.6-4.6-13.4-10-25.4-3.5-7.7-7.7-18-9.5-22.9-9.6-26.1-18.1-45.3-32-72.2-15.3-29.6-43.4-77.2-46.9-79.5-3.9-2.6-34.9-12.6-49.9-16.2L527 12l5.2 10.2zM301.8 21.9c-2.4 2.2-6.6 6.6-9.2 9.8l-4.8 5.8 4.7-5c2.5-2.8 7-7.1 9.8-9.7 2.9-2.6 4.9-4.8 4.6-4.8-.3 0-2.6 1.8-5.1 3.9zM260 36c-7.1 10-14.7 33-15.5 47l-.4 7.5 1-6.9c2.1-15.5 6.6-29.5 13.4-42.4 4.6-8.6 5.1-10.2 1.5-5.2zM281.9 44.7c-1.3 1.6-1.2 1.7.4.4.9-.7 1.7-1.5 1.7-1.7 0-.8-.8-.3-2.1 1.3zM475.4 48.5l2.4 5-2.7.2c-8.9.9-26.6 3.8-32.3 5.3-23.7 6.4-72.1 25.4-81.7 32-1.4.9-6 3.7-10.1 6.1-23.3 13.5-39.8 26.2-64.9 49.7-12.7 12-13.4 12.5-14.8 10.6-3.2-4.1-8.4-16.3-10-23.4-2.2-9.7-2.1-26.9.2-37.8.9-4.6 1.5-8.5 1.3-8.8-.3-.2-1.3 3.1-2.3 7.4-1.4 5.6-1.9 11.5-2 21.7 0 16.4 2 25.3 8.5 37.1 4.5 8.2 4.7 7.4-4.8 19.1-6.5 8-6.6 8.1 6.8-6.9l2.5-2.8 7 6c7.4 6.4 24.4 15.6 30.5 16.6 2.2.3.8-.6-4-2.4-10.1-3.9-19.5-10-25.9-16.7l-5.3-5.6 4.9-5.2c21.7-23.3 61-51.9 94.3-68.7 18-9.1 61.8-25.2 73.5-27.1 8.1-1.3 28.6-3.9 30.6-3.9.9 0 2.7 2.5 4.4 6.1 5.1 10.5 4.7 7.5-.5-4.3-2.8-6.2-5.7-11.9-6.5-12.8-.9-.9-.6.6.9 3.5zM279 49c-.6 1.1-.8 2-.6 2 .3 0 1-.9 1.6-2 .6-1.1.8-2 .6-2-.3 0-1 .9-1.6 2z"/><path d="M274.5 56.6c-1.5 2.5-2.5 4.7-2.3 4.9.2.2 1.6-1.8 3.1-4.6 3.5-6.2 2.8-6.5-.8-.3zM269.2 67.5c-1.7 3.7-1.4 4.5.4 1.2.9-1.6 1.4-3.1 1.1-3.3-.2-.2-.9.7-1.5 2.1zM266.6 73.5c-.9 2.6-.7 3.2.5 1.2.6-1 .9-2.1.6-2.3-.2-.3-.7.2-1.1 1.1zM488.6 75.3c.3 1 .9 1.5 1.2 1.2.3-.3 0-1.1-.7-1.8-1-.9-1.1-.8-.5.6zM185.4 84.5c0 4.9.1 7.1.3 4.8.2-2.3.2-6.4 0-9-.2-2.6-.3-.8-.3 4.2zM263.1 84.6c0 1.1.3 1.4.6.6.3-.7.2-1.6-.1-1.9-.3-.4-.6.2-.5 1.3zM497.6 92.7c18.3 33.8 33.4 58 44.9 71.8 3.7 4.4 13.5 14.9 21.8 23.2 8.4 8.4 14.8 15.3 14.3 15.3s-5.2-2-10.5-4.6c-12.5-5.9-10.6-4.2 3.4 3.1 6.1 3.2 12.3 6.6 13.8 7.7 6.9 4.9 2.8-.4-12.5-15.9-37.1-37.8-46.9-50.9-71.7-96.1-4-7.2-7.5-13.2-7.8-13.2-.2 0 1.7 3.9 4.3 8.7zM243.2 96c0 1.9.3 5.5.7 8 1.1 6.1 1.2.4.1-6.5-.6-4.1-.7-4.4-.8-1.5zM694.7 98.5c1.5 3 2.8 5.3 3 5.1.6-.6-4-10.6-4.8-10.6-.5 0 .3 2.5 1.8 5.5zM161.1 100.2c2.2 5.6 3.7 7.9 2.4 3.9-1.2-3.9-3.5-9.1-4-9.1-.3 0 .5 2.4 1.6 5.2zM707.1 106.7c4.4 4.8 16.9 19.6 27.9 33.3 18.1 22.5 23 30.2 35 56 9.2 19.7 13 27.3 13.5 26.8.2-.2-.9-4.5-2.4-9.6-1.6-5.1-2.6-9.2-2.2-9.2.3.1 2 2 3.7 4.3 1.7 2.3 7.3 9.1 12.4 15.1l9.4 11-10 9.2c-5.4 5.2-10.2 9.4-10.6 9.4-.5 0-.8-.8-.8-1.8 0-3.2-4.9-11.6-8.3-14.4-3.2-2.5-9.4-4.8-12.7-4.8-1 .1-.9.4.5 1.2 6.8 3.7 15.5 16.5 15.5 22.9 0 1.4-1.1 4-2.4 5.7l-2.4 3.3 1.8 5.7c1 3.1 5.5 12.8 9.9 21.4 8.5 16.6 10.1 21.5 20.5 60.8 7.7 29 8.8 30.1 2 2-3-12.5-5.1-20.1-9.5-34.4-1.4-4.5-.5-4.1 2.4 1.1 1.4 2.7 4.4 6.8 6.7 9.3 4.1 4.6 7.8 9.7 22.4 31.5 14.7 22 15.2 22.9 17.5 32.2 1.1 4.8 2.2 10.1 2.4 11.8.4 2.8.4 2.8.5-.5.1-1.9-.5-6.5-1.2-10.2-1.3-6.9-1.1-7.2 2.8-3.9 1.8 1.5 1.9 1.5 1.3-1.8-.4-1.8-.7-4.1-.7-5.1s-1.6-2.4-4.1-3.5c-3.9-1.8-4.6-2.7-14.8-18.5-1.5-2.4-1.4-2.3 2.1.5 2 1.6 6.2 5.2 9.2 7.9 3.1 2.7 5.9 4.7 6.1 4.4.3-.3-3.1-3.8-7.6-7.8-9-8.1-28.6-30.1-35.4-39.6-2.4-3.3-7.6-11.8-11.5-19-4-7.1-8.4-14.9-9.8-17.4-2.3-4.1-1.4-3.4 8.9 6.4 14.6 13.9 48.2 40.7 49.4 39.4.6-.6-4.1-18.8-5.1-19.8-.5-.5-5.4-3.4-10.8-6.4-5.5-3.1-13-8.1-16.7-11.2-6.6-5.3-21.1-19.5-20.6-20 .2-.2 3.4.8 7.2 2.2 8.6 3.2 32.9 10.3 33.4 9.9.4-.4-3.9-13.7-4.8-14.7-.3-.4-5.2-1.6-10.8-2.7-15-2.9-15.5-3.7-2.9-4.6 12.1-.8 11.6 0 6.9-10.1-2.4-5.3-2.6-5.5-5.6-4.9-1.8.4-9.4 2-17 3.7-7.6 1.7-14.1 2.7-14.5 2.3-1.9-1.8 13.3-10 24.9-13.5 4.6-1.3 5.6-1.9 3.5-1.9-2.8-.1-2.8-.2-1.2-2 1.7-1.8 1.6-2.1-.5-6.3-1.2-2.3-3.4-5.4-5-6.8-5.4-4.9-30.1-35.6-33.6-42-2-3.6-5.2-8.5-7-11-1.9-2.5-7.7-11-12.9-19-5.3-8-11.5-16.8-13.9-19.5-2.3-2.8-6.5-7.8-9.2-11.2-7.6-9.5-22.4-25.3-23.6-25.3-.6 0 .5 1.7 2.4 3.7zm70.8 136.8c2.5 3.7 3.9 11.2 2.6 14.2-.6 1.3-1 .4-1.5-3.3-.4-2.8-1.9-7.4-3.3-10.2-2.8-5.7-1.5-6.1 2.2-.7zM698.1 105.5c0 .5.6 2.1 1.4 3.5.8 1.4 1.4 2 1.4 1.5 0-.6-.6-2.1-1.4-3.5-.8-1.4-1.4-2.1-1.4-1.5zM245.6 114.5c.3 2.7 1 5.7 1.5 6.5 1.2 2.1 1 .3-.6-6l-1.5-5.5.6 5zM702.1 114.5c.2.6 2.5 6 5 12 2.6 6.1 7.9 19.4 11.9 29.8 4 10.3 7.5 18.5 7.7 18.3 1.1-1-21.6-57.9-23.9-60.1-.7-.7-.9-.7-.7 0zM258 145.9c.5 1.1 1.5 2.3 2.1 2.7.6.3.3-.5-.6-2-2-3-3-3.5-1.5-.7zM262.9 152.8c1.1 1.6 2.8 3.5 3.8 4.3.9.8.2-.5-1.7-2.9-3.8-4.8-5.2-5.7-2.1-1.4zM728 179.9c0 .6.4 1.3 1 1.6.6.3.7-.1.4-.9-.7-1.8-1.4-2.1-1.4-.7zM253.9 182.7c-1.3 1.6-1.2 1.7.4.4.9-.7 1.7-1.5 1.7-1.7 0-.8-.8-.3-2.1 1.3zM555.1 194.7c2.9 3.3 18.1 17.1 33.8 30.8 2.5 2.2 7 6.2 10.1 9 3.1 2.7 10.3 9 16.1 14 16 13.8 21.8 19.6 21.3 21-.3.7 3.5 6.6 8.3 13.1 12.1 16.2 12 16 22.8 34.5 16.9 28.9 35.7 68.8 44.7 94.9 3.1 9.2 10.6 33.1 13.1 42 2.8 10 8.7 38.8 8.7 42.5 0 2.5 1.7 7.2 5.2 14.1 2.9 5.6 5.4 10.1 5.6 9.9.2-.1-1-3-2.7-6.3-2.9-5.8-4.1-10.2-9.6-37.7-1.4-7.2-3.5-16.4-4.5-20.6-1.1-4.2-2-8-2-8.4 0-.5 1.9 2.1 4.1 5.6 7.1 11 31.1 43.6 41.3 55.9 3.8 4.7 18.4 19.9 32.4 33.9 28 28.1 28.7 28.5 25.7 15.4-3.5-14.7-6-22.5-13.2-40.8-12.3-31.3-16.8-41.4-26.2-58-3.9-6.8-13.3-21.5-13.7-21.5-.3 0-.3.3-.1.7.3.5 2.8 4.6 5.6 9.2 12 19.6 20.6 37.8 33.1 70.1 8.2 21.3 11.3 30.5 10.8 32.5-.2 1-1.8 0-5.3-3.3-8.3-7.8-10.2-9.1-6.1-4.1 2.1 2.6 5.8 6.3 8.3 8.4 4.5 3.8 5.5 5.4 6.8 11.5l.8 3.4-3.9-3.3c-10.4-9-33-31.2-42.4-41.8-13.5-15-20-23.2-28.9-36.3-3.9-5.8-11.2-16.4-16.2-23.5C728.1 446 723.1 436 715 414c-13-35.1-32.5-75.5-50.5-104.5-3.7-6.1-7.7-12.6-8.8-14.5-2.4-4-15.4-21.8-17.4-23.8-.7-.8-1.1-1.7-.8-2.2.9-1.4-19.5-20.1-65.8-60.4-7.6-6.5-14.6-13.1-15.8-14.7-1.1-1.6-2.5-2.9-3.1-2.9-.6 0 .5 1.7 2.3 3.7zM230.8 214.8c-1.8 1.6-9.1 6.8-16.3 11.7-14.1 9.6-31.5 22.6-33.6 25.2-1.5 1.7 9.2-5.7 25.8-17.8 8.7-6.4 21.3-14.3 21.3-13.5 0 .2-1.3 3.3-3 6.9-4.6 10.3-3.5 9.3 2.3-1.9 2.9-5.6 5.9-10.9 6.6-11.8 2.1-2.5.5-1.9-3.1 1.2zM374 238.5c.6 1.6 1.5 3.4 1.9 4 1.3 1.5 12.5 27.9 16.1 37.5 18 48.8 27.5 93.3 31.1 146.8.6 8.4 1.6 16.5 2.2 18 4.6 10.5 17.4 24.9 32.1 36.2 8.6 6.5 12.8 8.4 4.9 2.1-2.6-2.1-6-5-7.5-6.4-1.5-1.4-2.9-2.2-3.3-1.9-.8.9-10-8.5-15.5-15.9-2.8-3.6-6.3-9.5-7.9-13-2.8-5.9-3-7.5-3.3-19.1-.4-13.3.1-14.8 2.1-6.3 3.3 14.3 11.7 34.9 16.5 41 .9 1.1-.1-1.4-2.3-5.5-5-9.6-9.5-22.5-12.1-34.8-4.3-20.4-8.3-58.4-6.6-62.9.6-1.4 1.1-1.1 3 1.8 2.1 3 11.6 23.9 11.6 25.4 0 .3 1.6 4.2 3.7 8.6l3.6 8-3.8 3.9c-4.1 4.2-3.2 5.4 1.5 2 2.7-2 2.9-2 3.8-.3 1.9 3.5 11 33 12.8 41.1.9 4.5 1.9 8 2.2 7.8.8-.9-3-17.3-7.5-31.6-4.9-16-12.2-34.6-23.5-60.5-4.1-9.4-8.6-20.2-10-24-2.7-7.2-3.4-9.8-9.4-34.5-4-16.6-4.5-18.3-4.9-17.8-.2.2.7 5.1 2.1 10.8 3.1 12.8 7.1 32.1 8.5 41 1.1 7.1 4.9 37.6 4.9 39.9 0 3.5-1.1-.4-3.5-12.9-4.1-20.9-11.5-50.9-16-64.5-5.4-16.3-12.9-35.4-19.1-49-6.8-14.6-11.3-22.6-8.4-15zM293.1 243.6c0 1.1.3 1.4.6.6.3-.7.2-1.6-.1-1.9-.3-.4-.6.2-.5 1.3zM211 255c-1.1 2.2-1.8 4-1.5 4 .2 0 1.4-1.8 2.5-4s1.8-4 1.5-4c-.2 0-1.4 1.8-2.5 4zM175.3 255.6l-2.8 2.5 3.3-2.2c1.7-1.3 3.2-2.4 3.2-2.6 0-.8-1.1-.1-3.7 2.3zM290.1 256.6c0 1.1.3 1.4.6.6.3-.7.2-1.6-.1-1.9-.3-.4-.6.2-.5 1.3zM289.2 261c0 1.4.2 1.9.5 1.2.2-.6.2-1.8 0-2.5-.3-.6-.5-.1-.5 1.3zM205 265c-.6 1.1-.8 2-.6 2 .3 0 1-.9 1.6-2 .6-1.1.8-2 .6-2-.3 0-1 .9-1.6 2zM287 270.7c-1.4 7.9-4 30.5-4 34.7 0 6.4.9 1.4 2-10.4.6-6.9 1.8-16.5 2.6-21.3.9-4.8 1.4-9 1.1-9.3-.3-.3-1 2.6-1.7 6.3zM249.2 275c-4.4 7.2-5.7 10.7-2.1 5.5 2.3-3.5 7.1-12.5 6.6-12.5-.2 0-2.3 3.1-4.5 7zM197.4 277.2c-4.8 7.9-17.9 26-25.8 35.8-15.7 19.4-46 48.3-62.8 59.8-2.7 1.8-4.8 3.4-4.8 3.5 0 .2 8.9-4.1 19.8-9.4 21.3-10.5 38.6-20.8 49.7-29.8 7.6-6.2 13-10.1 13.8-10.1.3 0-.8 3.9-2.3 8.7-12.1 36.9-18 65.3-23.6 113l-.5 4.3h-19.2c-30.4 0-60.1 1.8-84 5.1-24.5 3.4-34.1 5.2-33.1 6.1.3.4-1.1 1.5-3.3 2.5-2.1 1.1-7.1 3.8-11.1 6.2l-7.4 4.3.6 4.7c1.2 7.9 3.8 23.6 4.1 23.9.1.2 11.2-2.4 24.6-5.6 20.4-5 52.2-12.6 61.9-14.8 1.5-.4.6.6-2.5 2.4-5.4 3.3-17.5 13.8-17.5 15.3 0 1.4 4.2.1 16-4.8 16.6-7 34-13.7 40-15.6 6.4-1.9 27-8.7 28.5-9.3.6-.3 1 5.7 1 16.7v17.2l-9 3.9c-5 2.2-13.5 5.7-19 7.8-9.3 3.6-25.5 10.9-21 9.5 1.1-.4 5.4-1.8 9.5-3.1 4.1-1.4 8.2-2.6 9-2.8 1.5-.3 2.9-.8 11.2-4.5 2.6-1.1 4.9-1.7 5.1-1.3.2.4 1 3.3 1.7 6.5.7 3.1 1.5 5.5 1.8 5.2.3-.2-.1-2.6-.8-5.2-.7-2.6-1.4-5.5-1.6-6.4-.3-1.2 1.3-2.4 6.1-4.4 3.6-1.6 6.8-2.6 7.1-2.3.2.3.9 5.7 1.4 11.9 1.1 13.1 3.5 32.3 4.9 38.9.6 2.5 1.7 9.2 2.6 15 .9 5.8 1.9 10.7 2.2 11 .3.3.3-1.3-.1-3.5-1.5-8.6-2.6-36.9-2.2-54 .4-13.6.3-16.5-.5-12-.5 3.3-1 13.9-1 23.5l-.2 17.5-1.3-9.5c-2.1-15.9-3.4-38.4-3.6-61-.4-52.4 10.8-116.5 27.6-158 1.9-4.7 3.3-8.6 3.1-8.8-.2-.2-7.1 4.7-15.3 11-19.2 14.5-51.2 34-59.2 36.2l-2.5.7 2.4-1.8c1.4-1 7.9-6.3 14.5-11.8 22-18.2 40.7-38.8 55.5-60.9 6.6-9.9 14.6-23.6 13.8-23.6-.2 0-2.1 2.8-4.3 6.2zM139.1 277.1c-.1 3.2-2.1 5-14.6 13.3-9.8 6.5-11.6 8.5-8.5 9.3 1.3.4 1.3.3 0-.7s-1.3-1.2-.1-1.7c2.3-.9 24.9-16.2 25.6-17.3.3-.6.2-1-.4-1-.5 0-1.2-1-1.4-2.3-.4-2-.4-2-.6.4zM559 281.4c0 .2.8 1 1.8 1.7 1.5 1.3 1.6 1.2.3-.4s-2.1-2.1-2.1-1.3zM564.5 285.6c5.8 5.8 15.5 14.3 12 10.5-2.2-2.3-6.2-6.1-9-8.4-2.7-2.2-4.1-3.2-3-2.1z"/><path d="M797 285.3c2.8 2.7 32.2 14.7 36.1 14.7 2.1 0-.2-1.9-3.1-2.5-3.6-.8-20.1-7.1-28.5-10.9-3.3-1.5-5.3-2.1-4.5-1.3zM751.5 288.6c-1.8 1.6-2.2 2.2-.9 1.5 1.8-.9 5.3-4.2 4.3-4.1-.2.1-1.7 1.2-3.4 2.6zM59 289.5c2.8 3 10.6 8.5 12.1 8.5.5 0 .9.6 1 1.2 0 .7.4.2 1-1 1.2-3.1.4-4.2-3.2-4.2-3.1 0-8.9-2.5-8.9-3.8 0-.4-1-1.3-2.2-2.1-2.2-1.3-2.1-1.2.2 1.4zM236.9 298.7c-7.2 15.3-9 19.5-8.6 19.9.4.4 5.8-10.8 11.1-22.9 3.9-8.9 2-6.7-2.5 3zM738.9 298.1c-4.6 3.3-11.7 7.9-15.6 10.1-8.2 4.5-9.9 6.1-2.4 2.4 8.6-4.4 29.1-18.6 26.8-18.6-.2 0-4.2 2.7-8.8 6.1zM130.3 299c-6.1.3-11.5.9-12 1.4-.8.8 22.7-.2 23.6-1 .9-.8-.8-.9-11.6-.4zM132 307.1c-3 2.8-7.7 6.8-10.5 8.9-2.7 2.1-9.8 8.2-15.6 13.7-5.9 5.4-17.6 16.1-26 23.8-8.4 7.7-21.6 19.9-29.3 27-7.8 7.2-18.7 17-24.2 21.8-5.6 4.8-11.9 10.4-14.1 12.5-2.1 2-5.9 5.3-8.3 7.3-2.5 2-4.3 3.9-4 4.2.8.8 29-23.4 42.5-36.4 13.8-13.3 23.6-22.2 34.5-31.3 4.7-3.9 13.5-11.8 19.6-17.6 6.1-5.8 16.6-15.5 23.5-21.7 11.9-10.7 18.8-17.3 17.8-17.3-.2.1-2.9 2.3-5.9 5.1zM788.1 304.7c0 .6 1 9.3 2.4 19.3 1.4 9.9 3 26.2 3.5 36.3l.9 18.2-.5-20.5c-.3-19.2-1.6-31.7-4.8-47.8-.8-3.7-1.4-6.2-1.5-5.5zM284.3 318c0 4.1.2 5.8.4 3.7.2-2 .2-5.4 0-7.5-.2-2-.4-.3-.4 3.8z"/><path d="M710 315c-1.9 1.1-3 1.9-2.5 1.9.6 0 2.6-.8 4.5-1.9 1.9-1.1 3.1-1.9 2.5-1.9-.5 0-2.6.8-4.5 1.9zM661.4 320.5c5.8 12.3 7.6 16.2 7.6 16.9 0 .3 3.3 7.9 7.4 16.9 7.1 15.6 11.5 26.2 18.9 45.2 7.3 18.8 20.3 62.2 19.4 64.8-.2.6-3.6-4.4-7.7-10.9-13.7-22.2-41.1-60.8-45.6-64.4-1-.8-.3.5 1.6 2.8 1.9 2.4 4.2 5.3 5 6.5.8 1.2 5.2 7.3 9.7 13.4 11 14.9 24.4 35.2 32.8 49.3 8.8 14.8 14.6 24 15.2 24 .2 0-1.2-2.8-3.1-6.3-2.3-4.2-4.9-11.9-8-23.9-4.2-16.1-17.3-56.4-19.8-61.3-1.1-1.9-1-1.9.7-.5 1.5 1.2 1.4.6-.7-3-1.4-2.5-6-12.2-10.3-21.5-4.3-9.4-9.3-20.1-11.1-23.9-1.9-3.7-3.2-7.2-2.9-7.6.3-.5-1.7-4.9-4.4-9.7-6.3-11.1-7.8-13.2-4.7-6.8zM225.6 324.7c-.6 1.4-.5 1.5.5.6.7-.7 1-1.5.7-1.8-.3-.3-.9.2-1.2 1.2zM439.1 328c1.3 1.9 5.1 7.1 8.5 11.5 3.4 4.4 8.2 11.4 10.7 15.6 2.4 4.2 6.3 10.2 8.6 13.2 5.9 8 15.7 28.7 21.8 46.2 3.2 9.1 5.2 13.9 5.3 12.5 0-.6-11.4-34.7-12.4-37.1-.5-1.2.9-2.6 5.9-5.8 3.6-2.2 6.8-4.1 7.1-4.1.3 0 5.6 3.3 11.7 7.4 10.2 6.6 21.7 13.2 19.2 10.9-.5-.5-7.1-4.9-14.5-9.7-25.8-16.7-35.6-24.5-52.5-41.5-5.8-5.8-11.5-11.5-12.8-12.6-1.2-1.1-3.7-3.8-5.5-6-3.1-3.7-3.2-3.7-1.1-.5zm45.2 43.8c3.1 2.4 5.7 4.7 5.7 5.2 0 1-9.1 6-10.9 6-.5 0-2.5-2.8-4.4-6.3-1.8-3.4-5.2-9.4-7.5-13.4s-4.2-7.5-4.2-7.9c0-.3 3.5 2.3 7.8 5.8 4.2 3.5 10.3 8.3 13.5 10.6zM503.6 326.3c.3 1 .9 1.5 1.2 1.2.3-.3 0-1.1-.7-1.8-1-.9-1.1-.8-.5.6zM614.5 334c1 1.1 2 2 2.3 2 .3 0-.3-.9-1.3-2s-2-2-2.3-2c-.3 0 .3.9 1.3 2zM622 342.5c3 3 5.7 5.5 5.9 5.5.3 0-1.9-2.5-4.9-5.5-3-3-5.7-5.5-5.9-5.5-.3 0 1.9 2.5 4.9 5.5z"/><path d="M672 338.9c0 .6.4 1.3 1 1.6.6.3.7-.1.4-.9-.7-1.8-1.4-2.1-1.4-.7zM437.6 341.5c1 1.6 3 5 4.5 7.5 3.6 5.7 12.2 33.5 15.3 49.3.8 4 1.7 8.3 2 9.7.3 1.4.3.2.1-2.5l-.3-5 5.1-3.3c2.9-1.7 5.6-3.2 6.2-3.2.5 0 2.9 3.5 5.3 7.8 2.3 4.2 6.2 11.3 8.7 15.7 2.5 4.4 4.5 8.2 4.5 8.5 0 .3-2.3 1.8-5.1 3.3-2.8 1.6-4.9 3.1-4.6 3.3.3.3 2.5-.6 5-2 2.4-1.4 4.7-2.6 5-2.6.4 0 3.2 4.8 6.2 10.7 3.1 6 5.3 9.7 5 8.3-1-4.2-13.1-28.4-17.3-34.6-2.2-3.3-5.9-9.7-8.2-14.3-7.1-14.2-27.8-46.3-35.9-55.7-2.6-3.1-3-3.3-1.5-.9zm20.1 30.1c9.4 15.3 10.5 17.3 9.9 18.3-.3.5-2.6 1.6-5.1 2.4l-4.5 1.6-1-4.2c-.6-2.3-1.5-5.8-2-7.8-1.9-6.8-5-19.4-5-20.2 0-2 2.4 1.1 7.7 9.9zm11.3 20.9c0 .9-8.2 4.6-9.3 4.2-.7-.2.8-1.3 3.3-2.5 4.6-2.2 6-2.6 6-1.7zM683.8 361.5c9.8 19.8 12.8 26.6 21.5 48 8.1 20 19.6 58.9 21.2 72 .7 5.5 2.5 11.9 3.1 11.2.8-.8-4.5-25.8-8.6-40.3-5.6-20.1-11-35.8-18.7-54.4-6.2-14.8-24-51-27-54.7-.7-1 3.1 7.2 8.5 18.2zM545 344.2c0 .9.5 2 1 2.3 1.3.8 1.3-.5 0-2.5-.8-1.3-1-1.3-1 .2zM808 348.5c0 .5.5 1.7 1 2.5s1 1 1 .5c0-.6-.5-1.7-1-2.5s-1-1.1-1-.5zM628 349.4c0 .2.8 1 1.8 1.7 1.5 1.3 1.6 1.2.3-.4s-2.1-2.1-2.1-1.3zM636.4 359c6.6 7.4 7.3 8 4.8 4.5-1.1-1.7-3.7-4.6-5.8-6.5-3.1-2.8-2.9-2.4 1 2zM524.9 357.7c-1.3 1.5-1.2 1.5.9.4 2.3-1.2 2.8-2.1 1.3-2.1-.5 0-1.5.7-2.2 1.7zM811 356.5c0 .3 2.1 7.2 4.6 15.3 2.5 8.1 5.9 20.1 7.4 26.7 1.6 6.6 2.9 11.3 2.9 10.5.2-2.8-3.6-20.4-5.9-27.5-6.5-20.5-8.2-25.5-8.6-25.5-.2 0-.4.2-.4.5zM326.1 360c.6 1.9 1.6 3.9 2.1 4.5.5.5.3-.6-.3-2.5s-1.6-3.9-2.1-4.5c-.5-.5-.3.6.3 2.5z"/><path d="M628.6 370.1c8.7 10.7 13.7 18.1 26.6 38.9 6.3 10.2 14.8 23.7 18.8 30 6 9.4 23 39.3 23 40.5 0 .1 2.7 5.8 5.9 12.6 15.6 32.8 25.6 65.3 30.3 99.4.7 5.2 1.2 19.3 1.2 33.5 0 26.5-1.5 39.5-7 60-1.4 5.2-3.4 12.6-4.4 16.5-1 3.8-3.2 10.5-4.9 14.8-1.7 4.3-3.1 8.3-3.1 9 0 .6-.4 1.8-.9 2.6-.7 1.1-1.7.8-5-1.8-2.4-1.9-4.1-4.2-4.2-5.4-.1-1.3-.3-1.6-.5-.7-.4 1.2-2.9 1.5-14.2 1.6-11.5.1-31.1 2.1-51.1 5-2.8.5-4.2.3-3.8-.3.3-.5 1.7-7.5 3.1-15.5 2.4-13.9 2.5-15.4 1.6-35.9-.5-11.8-1.6-25.9-2.5-31.4-.9-5.5-2-12.8-2.5-16.1-1.5-9.3-1.3-10.5 1-6.7 1 1.8 2.6 5.4 3.4 8 1.4 4.7 1.5 4.8 1.5 1.3.1-1.9-.8-8.5-2-14.5-3.6-19.2-25.2-101.6-28.4-108.5-1.1-2.3-1.4-2.7-1.1-1.1.3 1.4 1.5 7.7 2.7 14 4 21.7 11.1 56.6 13 64.6 2.4 10 2.3 11.6-.2 4.5-2.3-6.6-17-62.9-20.5-78.5-7.8-34.7-9.5-44.1-9.1-49.8.4-4.9.3-5.7-1.2-5.7-2.3 0-6.5 4.5-5.9 6.2.3.7.2 2.2-.3 3.3-.7 2-.8 2-.8-.1-.1-1.1-.4-2.4-.8-2.8-.5-.4-1.6-2.8-2.5-5.4l-1.6-4.7-.1 3.6c-.1 3-.9 4.2-4.8 7.6-15.8 13.1-35.6 24-60.2 32.8l-16.3 5.8-5.9 7.5c-5.8 7.3-7.8 11.2-4 7.8 1.8-1.6 1.8-1.6 1.3 1-.3 1.5-.1 2.5.4 2.3.5-.2 4.1-2 7.9-4 3.9-2 15.1-7.1 25-11.3 23.7-9.9 44.4-20.5 52.8-26.8 3.8-2.8 6.9-4.9 7.1-4.7.2.2 1.8 7.1 3.5 15.4 3.3 16.3 7.6 46.5 9 64 .5 7.4.9 9.1 1 5.4.2-11.5-4.3-47.3-9-71.1-3.5-17.5-3.5-18-.8-20.4 1.6-1.4 1.9-2.6 1.5-4.9l-.6-3 1.8 3c2 3.4 5.5 24.7 7.7 48 2.3 24.3 4 68.8 2.7 71.1-1 1.6-1.2 1.4-1.3-2.1-.2-2.2-.6 6.1-.9 18.5-.6 19.6-1.1 24.5-3.9 37.8-1.7 8.4-3.6 16.3-4.2 17.5-2.8 5.3-28.5 32.9-46.1 49.5-6.3 5.9-6.9 6.2-11.5 6.2-2.6 0-7.9-.7-11.8-1.6-6.9-1.5-10.6-2.2-46.5-9-57.6-10.9-66.9-13.2-78.5-19.2-12.1-6.3-17.8-12.2-35.5-37.2-10.7-15-18-24-28-34.5-7.4-7.7-18.4-19.9-24.3-27-10.2-12.1-10.9-13.2-10.3-16.4.3-1.9.9-3.8 1.3-4.2.4-.4 4.5.8 9.1 2.6 4.5 1.8 8.2 3 8.2 2.6 0-.4-1.1-1.8-2.5-3.1-3.5-3.3-4.4-7.6-3.5-16.2 1.1-9.2 1.8-10.9 5.7-14.2 2.7-2.3 9.1-5.6 10.8-5.6.3 0 .2 1.7-.1 3.8-1.3 8 4.9 25.3 11 31.1 2.2 2.1 2.3 2.1 4.7.3 3.4-2.7 9.9-1.9 9.9 1.2 0 1.2-1.3 3.5-3 5.1l-3 2.9 2.3 2.4c3.5 3.9 19.7 14.1 23.4 14.8 1.8.3 3.3 1 3.3 1.5s-.4.9-.8.9c-.5 0-1.7.7-2.8 1.5-1.8 1.3-1.7 1.4 1.1.6 9.5-2.9 12.8-4.5 14.7-7.5 6-9.6-5.2-45.8-18.2-58.2-2.7-2.7-5-5.5-5-6.3 0-1.3-5.6-7-6.9-7.2-.3 0-6-.2-12.6-.5-12.6-.5-12.1-.6-36 6-2.7.8-5 1.4-5.1 1.3-.6-.9-1.1-38.7-.5-38.7.9 0 3.6 10.6 5.5 21.5.9 4.9 1.5 6.7 1.5 4.5.2-8.6-11.2-53.8-14-55.5-1.2-.8-1.2-.2 1 11.1 1.1 5.4 2.4 13 3 16.9 1.4 9.4 1.9 41.1.6 42.3-.6.5-3.5 1.8-6.5 2.8-4.9 1.7-5.2 1.9-2.6 2.2l2.9.4-.7 9c-.6 7.7-.4 10.1 1.5 16 2 6.7 2.1 7.2.5 14.6-3 14.8-3.1 14.8-5.1 4-1-5.4-2-9.6-2.3-9.4-.3.4 1.4 14.4 3.8 31 .6 3.8.9 7 .7 7.2-.1.2-2.7-3.4-5.7-7.9s-7.4-10.6-9.8-13.4c-11.9-14.8-25.3-39.6-42.3-78.8-4.3-9.9-7.9-17.6-7.9-17.1s1.3 5 3 10c1.6 5 3.9 13.6 5.1 19.1 4.5 21.1 18.6 68.3 23.4 78.5 3 6.4 3 6.2-2.9-11.5-8.1-24-20.4-69-19.3-70.2.2-.2 1.7 2.5 3.2 5.9 8.6 19.4 19.2 39 32.5 60.3 4.1 6.5 6.4 11.6 8.4 18.5 10.9 38.3 29.7 75.6 50.6 100.5 10.3 12.3 27.3 28.3 39 36.8 2.4 1.7 2.4 1.7-1 .1-16.6-7.8-48.8-38.4-66.1-62.9-4.8-6.8-16.8-27.2-21.7-37.2-2.3-4.5-4.6-8.4-5.2-8.8-1.3-.8-.1 2.4 4 10.4 1.6 3.4 2.8 6.1 2.6 6.1-.9 0-17.6-26-23.1-36-17.3-31.2-34.3-73.2-45.3-112-6.6-22.8-12.9-49.4-14.1-59-.8-5.9-.1-25.7 1.4-41.5.4-4.8.3-5.5-.6-3.5-3.1 7.4-4.2 59.8-1.9 91.4 1.2 16.7 5.1 44.3 8.1 57.8 1 4.8 1.9 10 1.9 11.5 0 2.6 9.8 33 9.9 30.8.1-.6-1.3-5.5-3-11-8.4-27.9-15.3-73-16.3-107.5-.6-17-.5-17.3.9-12 .9 3 4.1 14.5 7.1 25.5 7.6 27.5 15.9 52.9 23.9 73.1 12.6 31.9 34.2 72.8 46.5 87.9 2.2 2.7 6.1 8.3 8.8 12.4 10.5 16.5 23.1 35 28.2 41.5 7.1 9.1 21.5 23.2 31 30.5 7.4 5.7 30.6 20.1 32.4 20.1 1 0 .3 22.1-1.4 40.7-1.3 15-9.7 48.2-17.6 69.8-.5 1.6-.4 1.7.5.9 3.5-3.3 17-54.3 18.7-70.6.6-6 2.4-8.1 2.4-2.7 0 1.7.4 2.8 1 2.4 1-.6.6-10.4-1.2-27.8-.6-5.9-.9-11-.6-11.2.2-.3 2.3.2 4.5 1.1 4.6 1.8 5.2 3.3 5.4 13.3.1 3.3.4 4.4.6 2.6l.5-3 1.5 3.5c.8 1.9 2.1 7.5 2.9 12.5 1.8 11.7 2.3 13.5 3.3 13.5 1.3 0-3-24.4-6.5-36.7l-.6-2.1 7.1 2.1c7 2 7.4 2.3 16.4 12.1 5.1 5.6 12.5 13 16.5 16.5 8.4 7.4 8.3 7.7-2.5 8.7l-7 .7-2.1-5.9c-1.1-3.3-2.8-8.2-3.7-10.9-1.5-4.8-4.4-10.8-4.5-9.3 0 .4 1.4 6 3 12.4 1.7 6.5 2.8 12.4 2.5 13.2-.4 1.2-2.4 1.4-10.3 1-5.3-.3-8.8-.2-7.7.3 3.5 1.3 26.6 1 35.5-.6 11.5-2 24.9-5.6 40.8-10.8l13.2-4.4-1.6 2.6c-3.1 4.8-23 23.9-27.3 26-2.3 1.2-8.6 3.1-13.9 4.2-20.5 4.3-41 1.2-49.1-7.5l-2.4-2.6h2.9l2.9-.1-3.6-1.9c-2-1.1-3.9-2.5-4.2-3.2-.2-.7-.3-5.9-.2-11.6.2-5.9-.1-10.5-.7-10.8-.6-.4-.8 4.2-.6 12.8.2 10 .7 13.8 1.8 15.1 3.2 3.9 4.8 5.5 6.3 6.3 1.5.9 2.8 11.4 3.9 30.9l.3 5-4.5 2.3c-7.3 3.6-8 3.3-8.2-4.6l-.2-6.7-.5 7.5-.6 7.4-4.7 1.5c-2.7.8-5 1.3-5.2 1-.2-.2.3-5.6 1-11.9.7-6.3 1.2-19.8 1.2-30l-.2-18.5-.7 22c-.7 21.4-2 36.2-3.2 38.2-.4.6-2.7 1.3-5.2 1.6-2.5.2-4.8.7-5.1.9-1 1.1 1 3.9 3.7 5.3 4.1 2.2 4.3 1.8.7-1.3l-3.1-2.9 5.9-.7c13.2-1.5 38-12.5 59.4-26.3 15.9-10.2 29.9-20 36-25.2 3-2.5 6.4-5.3 7.5-6.1 2-1.5 2-1.5.1 1.5-1.1 1.6-3.1 4.8-4.5 7-1.3 2.2-5.8 9.2-9.9 15.5-4.2 6.3-8.5 13.1-9.7 15-1.2 1.9-3.3 5.3-4.7 7.6-1.7 2.5-4.9 5.4-8.8 7.7-3.4 2-6.4 3.7-6.6 3.7-.3 0-3.3 1.4-6.7 3.1-3.4 1.7-8.4 3.7-11.2 4.4-4.9 1.3-4.9 1.3-1.3 1.4 2.2.1 6.9-1.3 12-3.5 10.9-4.8 18.1-7.5 18.6-7 .2.2-.1 2.1-.7 4.3-2.7 9.7-.4 7.8 3.4-2.7 2.7-7.8 13.6-26.3 23.2-39.7 3-4.3 6.4-9.3 7.4-11.3 2.3-4.2 2.4-2.7.3 4.8-2.6 9.7-5.6 17.4-10.4 27.2-6.2 12.5-11.2 30.9-7.1 26.4.4-.5 1.8-4.9 3.1-9.7 1.5-5.6 3.4-10.1 5.1-12.4 1.6-1.9 3.1-4.4 3.4-5.4.4-1.1 1.1-1.9 1.6-1.7.4.2 3.5 4.8 6.8 10.3l6 10-3 2.5c-1.7 1.4-2.7 2.9-2.3 3.3 1.2 1.2 5.2.8 6.7-.7 1-1 1.8-1.1 2.5-.4.9.9 4.3.5 15-1.8l2.3-.5-2.5-3.2c-1.3-1.7-4.5-7.4-7.1-12.5-3.9-7.8-4.8-10.7-5.7-18.5-1.7-14.3 1.5-32.8 8.2-48 1.9-4.3 2.9-5.1 10.3-9 11.6-5.9 13.1-6.4 33.2-10.3 80.5-15.5 109.9-19.7 137.1-19.8l18.1-.1 3.9 2.7c2.2 1.5 5.9 4.8 8.3 7.2 2.5 2.5 4.8 4.3 5.3 4 1.3-.8 1-1.7-1.7-4.8-1.4-1.7-2.4-3.6-2.3-4.3.6-2.7 2-1.8 3.6 2.2 1.8 4.6 2 5 2.7 4.3.3-.3-.4-3-1.6-5.9l-2.1-5.4 2.3-7.2c2.1-6.7 3.9-8.7 3.9-4.3 0 3.1 4 15 5.1 15 .6 0 .7-.5.4-1-1.5-2.5-4.5-15.4-4.5-19.5 0-2.6.7-7.8 1.6-11.8 1.5-6.7 2-7.6 7.7-13.1 7.8-7.4 18-15.6 30.9-24.7 10.3-7.4 11.6-7.6 11.9-2.4 0 1.1.7 4.2 1.5 7l1.3 5-.5-5.5c-1.3-13.5-14.1-58.4-23.6-83-6.5-16.5-20.9-48.6-26.4-58.5-1.8-3.3-4.2-8.5-5.4-11.5-1.2-3-3.6-7.9-5.4-11-1.9-3-7.3-12.3-12.1-20.5-4.8-8.3-11.3-18.8-14.3-23.5-3-4.7-7.1-11-9.1-14-1.9-3-7.2-10.5-11.6-16.5-4.5-6.1-10.5-14.4-13.3-18.5-6.4-9.2-13-17.5-24.5-30.8-10.4-12-13.7-14.7-5.1-4.1zm42.8 55.7c12 14.8 42.8 65.8 49.1 81.4 3.7 9.3 6.6 26.3 6.4 38.1l-.1 6.2-2-6.5c-8.9-29.6-28-71.3-45.4-99.6-10.9-17.6-17.3-29.3-15.1-27.6.9.8 4.1 4.4 7.1 8zm-59.9 120.7c4.2 16.5 9.5 36.5 11.7 44.4 3.9 14.1 4 14.6 2.3 17.4-1.8 3-9.9 14-14.1 19.2-1.4 1.6-5.4 7.2-9.1 12.3-3.6 5-6.8 9.1-6.9 8.9-.2-.1.6-3.6 1.6-7.7 4.5-17.5 7.4-61.1 6.5-97.4-.4-15.4-.5-27.9-.2-27.6.3.3 4 14 8.2 30.5zm-259.1-24.3c.3 1.3.6 3 .6 3.8-.1 1.2-.3 1.1-1.1-.3-.5-.9-2.1-1.7-3.4-1.7-3.1 0-3.2-1.4-.2-2.8 3.1-1.5 3.4-1.5 4.1 1zm377.2 1.5c2.2 5.2 4.3 17.4 4.5 25.8 0 3.8.5 8.1 1 9.5.5 1.5.6-2.7.2-10.3-.3-7-.3-12.7.1-12.7.3 0 1.3 1.5 2.2 3.2 1.5 2.8 1.7 6.4 1.7 24.6-.1 11.7-.7 26.1-1.4 32l-1.4 10.7-.7-6.5c-.4-3.6-.9-13-1-21-.1-8-.3-12.3-.5-9.5-1 14.3-3.1 7.1-4.3-14.5-.9-17.8-1.9-29.2-2.6-32.8-.7-3.4.4-2.6 2.2 1.5zm-108.3 27.5c3.2 8.9 10.7 40.4 10.7 44.6 0 3.5-1.6 5.1-2.4 2.5-1.2-4.1-11.6-52.4-11.6-53.9 0-1.7 1.1.7 3.3 6.8zm122.8 2.5c1.1 2.7 3.4 8.5 5 12.9 1.5 4.5 3.7 9.7 4.7 11.5 4.1 7.2 21.2 62.5 21.2 68.6 0 1.2-2.8 3.8-7.7 7.3-4.3 2.9-11.7 8.4-16.5 12.2-4.8 3.7-9 6.8-9.2 6.8-.9 0-6.7-13.7-6.8-16-.2-7.5 2.4-46.1 3.7-55.5.8-6.1 1.8-20.3 2.1-31.8.4-11.4.8-20.7 1-20.7.2 0 1.3 2.1 2.5 4.7zm-357.4 9.5c-.3.7-.5.2-.5-1.2s.2-1.9.5-1.3c.2.7.2 1.9 0 2.5zM325.6 600c6.1 6.3 13.5 14.2 16.4 17.5 5.2 6 12 16.4 12 18.3 0 .5.6 1.2 1.4 1.5.7.3 4.7 5.6 8.8 11.9 15.8 24 21.9 29.6 37.6 34.7 8.9 2.9 35.6 8.6 56.7 12.1 9.9 1.7 24.3 4.6 32.1 6.5 7.7 1.9 19.4 4.3 26 5.4 6.5 1.1 14.5 2.5 17.7 3.1l5.8 1.1 9.8-9 9.9-9.1 5.2 4.3c2.9 2.4 7.8 7.9 11.1 12.3 5.6 7.6 6.4 9.5 8.4 20.5l.7 3.5-16.9 3.3c-9.2 1.8-20.4 3.7-24.8 4.1-15.8 1.8-26.9 5.6-36.7 12.6-2.5 1.8-6.4 4.2-8.7 5.3-2.2 1.2-4.5 2.9-5 3.9s-3.3 2.6-6.1 3.5l-5.2 1.7-7.1-3.3c-28.2-13.1-59.9-40.3-83.1-71.4-3.8-5.1-7.1-9.3-7.3-9.3-.7 0 .8 2.1 9.2 13.5 10.2 13.6 18.7 23 30.9 34.2 5.3 4.8 9.4 8.8 9.2 9-.1.2-3.2-1-6.8-2.6-9.9-4.5-24.5-14.7-27.5-19.2-1.4-2.1-2.7-3.9-3-3.9-.6 0 1.7 4 6.5 11.3 4.6 6.9 7 9.4 3.3 3.3-1.2-1.8-2.1-3.6-2.1-4 0-.3 2.4 1.2 5.3 3.4 2.8 2.3 12 7.5 20.2 11.7 8.3 4.2 18.2 9.8 22.2 12.4 4 2.7 11.8 7.3 17.4 10.3 8.7 4.6 9.9 5.5 8.2 6.4-2.7 1.5-25.5 8-30.7 8.7l-4.4.7-15.1-15.1c-8.3-8.3-15.1-15.5-15.1-16s1.5-.5 3.8.1c4 1 5.3 1.2 15.2 2.1 6.5.6 6.5.6-1.4-.8-4.3-.8-8.6-1.7-9.5-2-.9-.4-2.9-.8-4.5-1.1-5.3-.7-6.4-1.5-12.2-9.4-16.9-23-32.7-54-42.4-83.3-2.4-7-4.5-12.5-4.7-12.3-.3.2.7 4.2 2.1 8.7 1.4 4.5 2.6 8.8 2.6 9.5 0 .7.7 2.8 1.4 4.6.8 1.8 2.7 6.4 4.1 10.3 1.5 3.8 5.6 12.6 9.2 19.3 3.5 6.8 6.3 12.5 6.1 12.7-.8.8-12.8-11.6-20.4-21-13.3-16.5-22.7-31.3-33.8-53-1.4-2.8-2.5-4.6-2.6-4.2-.1 2.1 13.7 27.3 20.5 37.6 8.9 13.3 16.8 23.2 28.5 35.6 15.6 16.6 14.1 14.1 15.5 25.7.7 5.7 1.1 10.4 1 10.6-.5.6-4.8-1.9-7.2-4.1-1.3-1.1-2.4-3-2.4-4.1-.1-1.7-.2-1.8-.6-.4-.2 1-.6 1.8-.9 1.8-.9 0-11.3-7.6-18.5-13.6-19.8-16.4-44.7-49.2-56.9-74.9-11.9-24.9-20.8-50.5-17.6-50.5 1 0 5.9 6.9 10.6 15 1.7 2.8 1.8.5.4-5-2.5-9.5-2.8-16.8-.9-25.2l1.7-7.6 8.1 9.1c4.4 5.1 13.1 14.4 19.3 20.7zm310.1 12c-.2.8-1.3-.7-2.5-3.4-1.8-3.9-2-5.2-1-6.4 1-1.2 1.5-.6 2.5 3.4.7 2.7 1.2 5.6 1 6.4zm-5.8 2.7c3.6 12.6 6.4 32.7 8.1 58 1 16 .4 20.3-2.6 20.3-5.8 0-35.9 13.2-46.1 20.1-2.3 1.6-4.3 2.9-4.6 2.9-.2 0-1.6-3.1-3.2-6.9l-2.7-6.9 3-7.8c3.4-9 8.1-23.6 10.8-33.9 1.3-5.1 3-8.4 6.3-12.5 8.2-10 20.3-26.3 21.1-28.4.4-1.2 2.2-3.8 3.9-6 1.7-2.1 3.1-4.3 3.1-4.7 0-2.5 1.1-.2 2.9 5.8zm-41.4 53.4c-3 11.4-9.7 30.9-10.6 30.9-.3 0-1.2-3-1.9-6.8-1.2-6.5-1.1-6.9 1.5-13.2 3.1-7.3 12.1-21.4 13.2-20.6.2.1-.9 4.5-2.2 9.7zm149.5 5.8c-.1 1.4-8 9.5-8 8.1 0-.8.7-5.3 1.5-10s1.5-8.7 1.6-9c0-.7 4.9 10.1 4.9 10.9zm-99.3 25.3c-2.8 17.1-5.2 28-6.1 28.3-1.8.5-40 5.5-41.6 5.5-1.4 0-6-10.5-6-13.7 0-2.7 17.4-11.3 38.1-18.7 15.5-5.6 16.3-5.6 15.6-1.4zm-244.6 28c1.7 2.9 5.1 7.9 7.5 11 2.4 3.1 4.4 5.9 4.4 6.3 0 .8-2.9 0-8.7-2.3-3.8-1.5-4.3-2.2-5.2-6.2-1.2-5.5-2.2-14-1.7-14 .3 0 1.9 2.4 3.7 5.2zm20.9 76.1c5.4 1.7 8.2 2.2 9.9 1.5 3.3-1.2 5.8-.2 7 3l1.1 2.7-.5-2.6c-.4-2.3-.1-2.7 2.6-3.3 1.7-.3 6.6-.6 10.8-.6h7.6l-2.5 2.1c-3.1 2.4-12.9 8.9-14.5 9.6-.7.2-1.5-.8-1.9-2.3-.4-1.4-.9-2.4-1.2-2.2-.2.3 0 1.7.5 3.1.9 2.4.7 2.9-2.2 5.1-4.2 3.2-23.7 12.9-24.4 12.2-.4-.3-1-5.4-1.4-11.3-.4-6-1.1-13-1.4-15.7-.5-4.4-.4-4.8 1.2-4.3 1 .3 5.2 1.7 9.3 3z"/><path d="M753.2 582c0 1.4.2 1.9.5 1.2.2-.6.2-1.8 0-2.5-.3-.6-.5-.1-.5 1.3zM754.2 587.5c0 1.6.2 2.2.5 1.2.2-.9.2-2.3 0-3-.3-.6-.5.1-.5 1.8zM755.6 596.5c.4 3.3 1.2 12.7 1.9 21 .7 8.2 1.3 12.5 1.4 9.5.1-6.6-1.7-26.5-2.9-32.3-.8-3.6-.8-3.3-.4 1.8zM321.6 621.3c.3 1 .9 1.5 1.2 1.2.3-.3 0-1.1-.7-1.8-1-.9-1.1-.8-.5.6zM323 624.5c0 .5.5 1.7 1 2.5s1 1 1 .5c0-.6-.5-1.7-1-2.5s-1-1.1-1-.5zM393 710.9c0 .6.4 1.3 1 1.6.6.3.7-.1.4-.9-.7-1.8-1.4-2.1-1.4-.7zM378.2 717c0 1.4.2 1.9.5 1.2.2-.6.2-1.8 0-2.5-.3-.6-.5-.1-.5 1.3zM379.3 724.5c0 2.2.2 3 .4 1.7.2-1.2.2-3 0-4-.3-.9-.5.1-.4 2.3zM494.9 733.5c8.7 9.4 12.2 12.9 8.1 8-5-6.1-10.4-11.8-12.6-13.5-1-.8 1 1.7 4.5 5.5zM412.9 741.8c.5 1 1.8 2.5 2.8 3.3 1.2 1 1.1.5-.6-1.9-2.4-3.5-3.8-4.3-2.2-1.4zM426.5 758c1 1.1 2 2 2.3 2 .3 0-.3-.9-1.3-2s-2-2-2.3-2c-.3 0 .3.9 1.3 2zM553.6 365.3c.3 1 .9 1.5 1.2 1.2.3-.3 0-1.1-.7-1.8-1-.9-1.1-.8-.5.6zM646.2 370.5c6 7.9 16 19.7 13.2 15.5-2.3-3.4-9.1-11.7-11.8-14.5-1.7-1.6-2.3-2.1-1.4-1zM812.2 379c0 1.4.2 1.9.5 1.2.2-.6.2-1.8 0-2.5-.3-.6-.5-.1-.5 1.3zM413.2 381.5c-.1 1.1.5 4.5 1.3 7.5.7 3 1.3 4.4 1.3 3 0-3.2-2.5-13.2-2.6-10.5zM814.2 389c0 1.4.2 1.9.5 1.2.2-.6.2-1.8 0-2.5-.3-.6-.5-.1-.5 1.3zM548.5 392.2c1.4 2.4 4.1 7.4 6.1 11.3 2 3.8 4.5 8.3 5.6 9.8 2 2.8 1.9 2.8-6.8-1.6-10.1-5-16-7.2-10.9-4 1.7 1.1 6.6 3.9 11 6.2 4.4 2.4 9.4 5.4 11.1 6.6 3.8 2.9 10.8 13.5 14 21.2 2.8 7 3.1 5.8.5-2.8-5.8-20-9.5-31.8-9.9-31.5-.1.2.6 4.1 1.8 8.6 1.1 4.6 1.9 8.5 1.7 8.6-.4.5-9.3-11.8-18-24.8-7.8-11.8-10.9-15.5-6.2-7.6zM815.2 394c0 1.4.2 1.9.5 1.2.2-.6.2-1.8 0-2.5-.3-.6-.5-.1-.5 1.3zM416.1 396.3c0 .9.5 6.1 1.3 11.5 2.8 19.2 3.9 35.5 3.4 51.1-.5 14.3-.5 15.2.8 10.6l1.3-5-.4 7c-.3 3.8-.5 9.6-.5 12.8 0 5.4-.1 5.7-1.9 4.8-1.7-.9-1.8-1.6-1-5.2.6-2.3.8-4.9.6-5.8-.2-.9-.7.8-1.1 3.6-.4 2.9-1.1 5.3-1.6 5.3-.4 0-2.8-1.9-5.4-4.1-2.6-2.3-4.9-3.9-5.2-3.6-.6.5 9.8 9 18.6 15.2l5.5 3.8-3.8-3.6c-2.1-2-3.6-4-3.3-4.5.7-1.1.7-26.9 0-36.2-1.7-22.6-6.9-64-7.3-57.7zM816.2 399.5c0 1.6.2 2.2.5 1.2.2-.9.2-2.3 0-3-.3-.6-.5.1-.5 1.8zM566 399.5c0 .5.5 1.7 1 2.5s1 1 1 .5c0-.6-.5-1.7-1-2.5s-1-1.1-1-.5zM817.2 405c0 1.4.2 1.9.5 1.2.2-.6.2-1.8 0-2.5-.3-.6-.5-.1-.5 1.3zM818.1 410.6c0 1.1.3 1.4.6.6.3-.7.2-1.6-.1-1.9-.3-.4-.6.2-.5 1.3zM850.2 412c0 1.4.2 1.9.5 1.2.2-.6.2-1.8 0-2.5-.3-.6-.5-.1-.5 1.3zM847.4 416.2c2.1 2.7 4 4.8 4.3 4.8.9 0-1.8-3.7-4.8-6.5-3.1-2.9-3.1-2.8.5 1.7zM460.2 415.5c0 1.6.2 2.2.5 1.2.2-.9.2-2.3 0-3-.3-.6-.5.1-.5 1.8zM852.9 423.5c-.6 6.8-1.6 12.1-4.5 25.5-.8 3.6-1.7 7.6-2 9-1.5 6.9 2.8-5.1 5.1-14.3 2-8 2.5-12.4 2.3-18.8l-.3-8.4-.6 7zM298 420.1c0 .3 1.3 3.8 2.9 7.7 2.7 6.5 4.7 12.9 8.7 28.2.9 3 2.1 9.3 2.8 14 .8 4.7 1.4 7.4 1.5 6 .1-2 1.3-3.2 5.9-5.7l5.8-3.2 5.5 10.3c3 5.8 5.5 10.3 5.7 10.1.2-.2-1.8-4.5-4.5-9.6-5.6-11-6.6-13.9-5-14 .7 0 .4-.4-.6-.8s-3.5-3.6-5.5-7.3c-9.8-17.5-23-37.9-23.2-35.7zm17.5 28.9c4.2 7.2 7.6 13.2 7.4 13.3-3.7 2.1-9.3 4.6-9.5 4.4-.2-.2-1-3.4-1.8-7.3-.9-3.8-2.4-10.8-3.5-15.6-1-4.9-1.6-8.6-1.2-8.3.4.2 4.3 6.3 8.6 13.5zm8 17c-.6 1-7.8 5-9 5-.3 0-.5-.6-.5-1.4 0-.8 1.7-2.1 3.8-2.9 4.3-1.9 6.6-2.1 5.7-.7zM359 423c1.2 1.6 2.4 3 2.6 3 .3 0-.4-1.4-1.6-3-1.2-1.7-2.4-3-2.6-3-.3 0 .4 1.3 1.6 3zM362 427.4c0 .2.8 1 1.8 1.7 1.5 1.3 1.6 1.2.3-.4s-2.1-2.1-2.1-1.3zM351 431.4c0 .2.8 1 1.8 1.7 1.5 1.3 1.6 1.2.3-.4s-2.1-2.1-2.1-1.3zM189.7 442.5c.3 4.9.7 9.2.9 9.4.8.9.2-14.5-.6-16.4-.6-1.3-.7 1.4-.3 7zM179.5 438.6c-1.4 8.8-1.7 10.1-3 13.9-2.3 7-8.9 58.4-6.9 53.7.6-1.3 4.4-3.5 8-4.6 2-.6 2.2-.2 2.7 5.1.3 3.2 1.4 11.9 2.5 19.3 2.4 15.9 4.6 54.3 3.7 63.8-.6 5.7-4.7 30.4-7.1 42.2-.4 1.9-.4 3.3-.1 3 1.1-1 7.7-35.8 8.8-46.5 1.9-18-.3-45.8-6.5-85-2.3-14.1-2.8-26.4-1.8-48 .5-11 .8-20.2.6-20.4-.1-.1-.6 1.4-.9 3.5zm-1.9 45.6c1.9 15.8 1.9 15.4-1.7 16.7-5.1 1.8-5.2 1.6-4.5-5.2.8-8.1 3.8-23.8 4.4-23.2.3.2 1.1 5.5 1.8 11.7zM356.7 438.5c1.2 1.6 3.4 4.1 4.9 5.5 1.9 1.7 1.5 1-1-2-5.3-6.1-6.3-7.1-3.9-3.5zM369.5 438c1 1.1 2 2 2.3 2 .3 0-.3-.9-1.3-2s-2-2-2.3-2c-.3 0 .3.9 1.3 2zM736.1 443.1c14.7 17.5 68 77.1 79.7 88.9 1.3 1.3 1.3 1.3.5-.3-1.2-2.4-23.3-27.5-46.3-52.7-5.8-6.4-14.1-15.6-18.5-20.5-4.4-5-11.1-12.2-14.8-16l-6.9-7 6.3 7.6zM378.4 449.5c2.5 3.3 6.2 7.6 8.3 9.5 2.3 2.2 1.5 1-2-3-9.8-11.5-11-12.6-6.3-6.5zM335 458.5c6.4 14.7 9.3 22.5 12.1 32.5 1.7 5.8 1.8 6 1.4 2-.3-2.5-1.6-8-3-12.3-1.3-4.2-2.2-7.7-2-7.7.1 0 4.8 7 10.4 15.4 5.6 8.5 13.5 19.6 17.6 24.7 4.4 5.3 7.9 10.7 8.4 12.8.5 2 1.4 5.6 1.9 8.1l1.1 4.5-.5-5c-1-10.1-6.7-31.2-13.6-50.3-2.8-7.8-5.2-14.1-5.4-13.9-.2.1 2.4 8.1 5.6 17.6 3.3 9.5 6.2 19.6 6.5 22.5l.6 5.1-5.1-5.5c-2.8-3-7.2-8.4-9.7-12-5.5-7.8-21.2-33.4-27.2-44.3-2.3-4.2-4.4-7.7-4.6-7.7-.1 0 2.3 6.1 5.5 13.5zM734.6 446c1.6 3.2 19.1 27 28.1 38.2 11.2 13.9 36.7 43.1 41.4 47.3 2.8 2.5 2.7 2.2-.7-1.5-17.2-18.9-48.3-56.8-59.9-72.9-6.3-8.8-10.2-13.6-8.9-11.1zM365 448.4c0 .2.8 1 1.8 1.7 1.5 1.3 1.6 1.2.3-.4s-2.1-2.1-2.1-1.3zM356 451.5c0 .5.5 1.7 1 2.5s1 1 1 .5c0-.6-.5-1.7-1-2.5s-1-1.1-1-.5zM191.3 457c0 2.5.2 3.5.4 2.2.2-1.2.2-3.2 0-4.5-.2-1.2-.4-.2-.4 2.3zM358 456.5c0 .5.5 1.7 1 2.5s1 1 1 .5c0-.6-.5-1.7-1-2.5s-1-1.1-1-.5zM360 461.5c0 .5.5 1.7 1 2.5s1 1 1 .5c0-.6-.5-1.7-1-2.5s-1-1.1-1-.5zM192.6 471.5c.9 16.4 7.1 45.8 13.8 65 4.5 13 4.6 10.3.1-3.9-6.5-21-10.1-38-13.9-66.1-.2-1.7-.2.6 0 5zM379 463.4c0 .2.8 1 1.8 1.7 1.5 1.3 1.6 1.2.3-.4s-2.1-2.1-2.1-1.3zM12 465.6l-6.5 1.3 6-.5c6.6-.5 14.2-2.3 9.5-2.2-1.4.1-5.4.7-9 1.4zM2.8 467.7c.7.3 1.6.2 1.9-.1.4-.3-.2-.6-1.3-.5-1.1 0-1.4.3-.6.6zM448 468.7c0 .5 1 1.8 2.3 2.9l2.2 1.9-2-2.5c-1.1-1.4-2.1-2.7-2.2-2.9-.2-.2-.3 0-.3.6zM396 469.3c0 .2 1.5 1.6 3.3 3.3l3.2 2.9-2.9-3.3c-2.8-3-3.6-3.7-3.6-2.9zM388.5 472c1 1.1 2 2 2.3 2 .3 0-.3-.9-1.3-2s-2-2-2.3-2c-.3 0 .3.9 1.3 2zM314.2 483c0 1.4.2 1.9.5 1.2.2-.6.2-1.8 0-2.5-.3-.6-.5-.1-.5 1.3zM400.2 481.6c.4.5 2.8 2.5 5.4 4.4 2.6 1.8 4.5 2.9 4.2 2.4-.4-.5-2.8-2.5-5.4-4.4-2.6-1.8-4.5-2.9-4.2-2.4zM338.2 492.1c.6 1.6 1.2 2.8 1.4 2.6.5-.5-1.3-5.7-2-5.7-.3 0 0 1.4.6 3.1zM500 492c-1.9 1.1-3.1 1.9-2.7 2 1.1 0 6.7-2.9 6.7-3.5 0-.7-.1-.7-4 1.5zM415.2 499.4c-2.6 14-11.1 36-18.8 48.6-3.7 6.2-1.6 3.9 3.9-4.1 6.8-10.2 13-27.3 17.2-47.7.4-1.7.3-3.2-.2-3.2s-1.4 2.9-2.1 6.4zM421 499.5c0 2.2-.2 5.8-.5 8s.2.9 1.1-2.9c1.1-4.9 1.3-7.1.5-7.9-.8-.8-1.1 0-1.1 2.8zM765.4 510.7c14.3 28.7 24.8 57.3 33.1 90 3 11.8 4.5 14.7 2.5 4.6-4.1-19.4-16-54.7-26.4-78.1-5.4-12.1-14.3-29.2-15.2-29.2-.2 0 2.5 5.7 6 12.7zM349.2 501c0 1.4.2 1.9.5 1.2.2-.6.2-1.8 0-2.5-.3-.6-.5-.1-.5 1.3zM339 504l-3.5.7 4.2.2c2.3 0 4.4.7 4.7 1.3.3.7.5.4.3-.6-.2-2.3-1.1-2.6-5.7-1.6zM444.8 507.2c1.4 1.7 19.7 9.3 24.9 10.3 3.2.6 3.5.7-11.7-5.2-6.3-2.5-12.2-5.1-13-5.7-1.3-.9-1.3-.9-.2.6zM832.1 516.5c.1 2.5 2.7 10.6 2.8 8.5 0-.8-.6-3.5-1.3-6-.8-2.5-1.5-3.6-1.5-2.5zM746.1 526c0 .8.6 2.6 1.5 4l1.5 2.5-.7-2.5c-.3-1.4-1-3.2-1.5-4-.7-1.3-.8-1.3-.8 0zM92.2 530.6c-2 1.9-2.8 3.1-1.7 2.5 3.2-1.6 8.1-6 6.7-6.1-.7 0-2.9 1.6-5 3.6zM835.6 530.5c.4 2.2 1.1 5.8 1.5 8 .7 3.4.7 3.1.4-1.7-.3-3.1-1-6.7-1.5-8-.8-1.8-.9-1.5-.4 1.7zM102 531c-.8.5-1 1-.5 1 .6 0 1.7-.5 2.5-1s1.1-1 .5-1c-.5 0-1.7.5-2.5 1zM149.1 531.6c0 1.1.3 1.4.6.6.3-.7.2-1.6-.1-1.9-.3-.4-.6.2-.5 1.3zM76.5 535.6c-7.6 2.8-40.8 11.4-51.8 13.5-3.7.7-6.4 1.6-6 2 .5.5 3.7.2 7.3-.5 22.6-4.8 28.4-6.2 36.3-8.7 4.9-1.6 9.5-2.9 10.2-2.9.7 0 1.5 1.8 1.9 4.4.7 4.7 3.7 8 19.9 22.5 9.4 8.4 7.9 5.7-2.1-3.8-7.6-7.3-9.3-9.4-9.4-11.9-.1-1.7.6-3.8 1.6-4.7 2.1-2.1 2.1-1.8-1.5-5.9l-3-3.5 2.8-1.5c4-2.2 1.8-1.8-6.2 1zM94 534c-.8.5-1 1-.5 1 .6 0 1.7-.5 2.5-1s1.1-1 .5-1c-.5 0-1.7.5-2.5 1zM751.1 538c1.2 3 3.2 8.2 4.4 11.5 1.3 3.3 3 8 4 10.5 9.3 25 18 61.1 21 87 1 9 1.3 10.3 1.4 5.8l.1-5.7 5.5-2c3.1-1.2 6-2.1 6.4-2.1 1.1 0 3.5-2.9 3-3.5-.2-.2-3.7 1-7.7 2.6s-7.5 2.9-7.6 2.9c-.2 0-.7-2.8-1-6.3-1.8-15.3-8.2-43.3-14.3-62.2-5-15.5-15-41.4-16.5-43-.5-.6.1 1.5 1.3 4.5z"/><path d="M86 536c-1.2.8-1.2 1 .5 1 1.1 0 2.7-.5 3.5-1 1.2-.8 1.2-1-.5-1-1.1 0-2.7.5-3.5 1zM150.1 536.6c0 1.1.3 1.4.6.6.3-.7.2-1.6-.1-1.9-.3-.4-.6.2-.5 1.3zM200.6 543.5c.2 4.4.9 18.4 1.4 31.1.9 19.9 3.9 46.7 5.5 48.3.7.7.6-1-1-12.6-3-22.4-5.4-62.3-3.7-62.3.5 0 1.2.8 1.5 1.7 2.1 7.5 11.7 35.9 22.7 67.8 7.3 20.9 14.1 40.7 15.2 44 1.1 3.3 3 8.2 4.3 11 1.2 2.7 2.6 6 3 7.3.4 1.3.9 2.2 1.1 1.9.3-.3-9.5-29.6-16.9-50.2-15.1-42.1-20.9-58.5-23.5-66.5-1.6-5.2-4.2-13.3-5.7-18-3.8-12.1-4.5-12.7-3.9-3.5zM392.7 541.5c-.4 3.3-1.4 8.5-2.2 11.5-1.2 4.6-1.2 5.2 0 3.7 1.7-2.3 3.8-14.1 3.3-18.2-.2-2.2-.6-1.3-1.1 3zM152.1 544.6c0 1.1.3 1.4.6.6.3-.7.2-1.6-.1-1.9-.3-.4-.6.2-.5 1.3zM693.6 551.5c1.1 4.8 2.5 7.6 1.8 3.5-.4-1.9-1-4.2-1.5-5-.6-1-.7-.5-.3 1.5zM77 556.1c0 1.5 7.4 8.9 8.9 8.9 1.2 0-1.7-3.6-6.1-7.5-1.5-1.4-2.8-2-2.8-1.4zM696.1 560.6c0 1.1.3 1.4.6.6.3-.7.2-1.6-.1-1.9-.3-.4-.6.2-.5 1.3zM697.1 564c0 .8.4 2.4.9 3.5.5 1.3.9 1.4.9.5 0-.8-.4-2.4-.9-3.5-.5-1.3-.9-1.4-.9-.5zM194.7 567.3c-.4 1.6-1.6 10.3-2.7 19.5-2.7 23.8-5.4 35.9-13.9 62.2-1.6 5.1-2.6 8.9-2.1 8.4 3-3.2 13.7-42.3 16-58.9 2.5-17.3 2.3-17.3 4.9-1.7 1.3 7.8 2.6 14 2.9 13.8.2-.3-.1-3.6-.8-7.3-.7-3.7-1.8-14-2.4-22.8-.8-10.9-1.4-15.1-1.9-13.2zM599.3 569.5c0 2.7.2 3.8.4 2.2.2-1.5.2-3.7 0-5-.2-1.2-.4 0-.4 2.8zM699.2 571c0 .8.4 2.6.8 4 .6 2 .8 2.1.8.5 0-1.1-.3-2.9-.8-4-.5-1.2-.8-1.4-.8-.5zM81.5 573.7c.3 1.4.8 3.7 1.1 5.2.4 1.7 9.4 11.7 25.4 28.1l24.8 25.4-.4 7.1-.5 7 5.6-6c5.6-6 8.8-10.4 6.6-9.1-.6.4-1.1.2-1.1-.3 0-1.4-4.8-6.1-21-20.6-7.4-6.6-19.7-18.1-27.3-25.7-10-9.8-13.7-12.9-13.2-11.1zM28 578.3c0 .2 1.3 3.6 3 7.6 2.8 6.9 5.4 9.9 11.9 14.3 3.8 2.6 4.1 2.3 2.6-2.9-1-3.4-3.2-6.4-7.7-11.1-5.6-5.6-9.8-9-9.8-7.9zM702.1 584.6c0 1.1.3 1.4.6.6.3-.7.2-1.6-.1-1.9-.3-.4-.6.2-.5 1.3zM703.1 588.6c0 1.1.3 1.4.6.6.3-.7.2-1.6-.1-1.9-.3-.4-.6.2-.5 1.3zM146.1 590.6c0 1.1.3 1.4.6.6.3-.7.2-1.6-.1-1.9-.3-.4-.6.2-.5 1.3zM405 591.8c0 1.1 5.1 3.5 5.8 2.7.7-.7-2.9-3.4-4.5-3.5-.7 0-1.3.4-1.3.8zM704.1 591.3c-.1.4 1 6.9 2.4 14.5 5.3 28.4 6.8 56.8 4.5 80.2-.6 5.6-.9 10.4-.7 10.7 1 .9 2.8-13.1 3.4-26.2.7-16.6-.8-35.6-4.3-55-2.5-13.8-5.1-25.7-5.3-24.2zM147.2 594.5c0 1.1.4 3.1.8 4.5.6 2 .8 2.1.8.5 0-1.1-.4-3.1-.8-4.5-.6-2-.8-2.1-.8-.5zM149.1 603.6c0 1.1.3 1.4.6.6.3-.7.2-1.6-.1-1.9-.3-.4-.6.2-.5 1.3zM200.2 614.5c0 1.6.2 2.2.5 1.2.2-.9.2-2.3 0-3-.3-.6-.5.1-.5 1.8z"/><path d="M208.1 625.6c0 1.1.3 1.4.6.6.3-.7.2-1.6-.1-1.9-.3-.4-.6.2-.5 1.3zM203.1 627c-.1 2.2 7.2 28.7 10.7 39 3.5 10.1 12.9 32.4 17.9 42.4 4.2 8.3 20.3 33.1 25.8 39.6 2.1 2.5 4.3 4.4 4.9 4.2.6-.2.8 0 .4.3-.4.4.6 2.6 2.2 4.9 2 2.7 3.3 6.2 4 10.1l.9 6-.3-5.3-.3-5.4 10.3 10.9 10.2 10.8-.4 14c-.2 7.7-.8 16.7-1.4 20-1 6.2-1.3 12.2-.6 11.4.7-.6 3.6-28 3.7-34.1.1-9.6.7-9.9 7.4-3.8 6.7 6.1 25.3 20 26.8 20 .5 0-3.7-3.6-9.4-7.9-5.7-4.3-13.4-10.7-17.1-14.1-5.7-5.2-6.8-6.7-6.8-9.4 0-9.2-7.1-56.1-8.7-57.6-.3-.3-.3 1.5.1 4 4 24.8 7.3 52.7 6.3 53.7-1.7 1.6-13.7-12.4-13.2-15.5.1-.9 0-1.1-.2-.4-.3.6-.8 1.2-1.3 1.2-1.1 0-7-9-7-10.7 0-.7-.4-1.2-.9-1-1.4.3-7.9-8.5-16.2-22.1-6.7-10.9-10.5-16.4-8.1-11.7 2 4 10.5 18.1 13.4 22.3 1.7 2.4 2.7 4.6 2.4 4.9-.3.3-5-6.3-10.5-14.7-17.3-26.2-31.7-58.5-40.1-90-4.8-18-4.8-18-4.9-16zm58 122.7c1.3 1.6 1.2 1.7-.3.4-1.7-1.3-2.2-2.1-1.4-2.1.2 0 1 .8 1.7 1.7z"/><path d="M254.4 627.7c.6 1.9 6.5 29.9 8.9 42.3 1.7 8.2 8.8 58.5 11.1 77.5 1.5 13.3 1.9 8.9.7-7.5-1.4-16.9-7.3-55-13.2-84.8-1.1-5.7-1.8-10.6-1.6-10.9.6-.5 8 21.7 13.7 40.9 1.7 6 4.4 16.8 6 24 3 14 4 14.8 1.6 1.3-3.7-20.8-15.7-60.3-23.9-78.8-2.4-5.3-4.5-7.8-3.3-4zM176.3 643c-1.2 4.1-2.4 9.3-2.7 11.5-.3 2.2.7-.5 2.4-6 1.6-5.5 2.8-10.7 2.7-11.5-.1-.8-1.2 1.9-2.4 6zM221 657.8c0 1.2 1.9 2.6 2.6 1.9.2-.2-.2-1-1.1-1.7-.9-.8-1.5-.8-1.5-.2zM492.6 658.3c-2.7.7-5.1 1.8-5.4 2.6-.4 1.1 0 1.2 1.4.6 1.1-.4 5.7-1.4 10.4-2.2 4.7-.7 9-1.5 9.5-1.8 2.4-.9-11.5-.2-15.9.8zM170.8 664.7c-.9 3.2-1.5 5.9-1.3 6.1.5.5 3.7-9.7 3.3-10.8-.2-.5-1.1 1.6-2 4.7zM222.1 662.6c0 1.1.3 1.4.6.6.3-.7.2-1.6-.1-1.9-.3-.4-.6.2-.5 1.3zM163.6 664.5c.8 3.7 1.4 4.5 1.4 1.9 0-1-.5-2.6-1-3.4-.8-1.1-.9-.7-.4 1.5zM220.6 670c.3 1.4 1.1 3.2 1.6 4 .6 1 .7.7.2-1-.3-1.4-1.1-3.2-1.6-4-.6-1-.7-.7-.2 1zM165.2 671c0 1.4.4 3.6.8 5 .6 2 .8 2.1.8.5 0-1.1-.4-3.4-.8-5-.7-2.7-.8-2.7-.8-.5zM244 673.2c0 .2.9 2.8 2 5.8 1.4 3.8 1.8 4.4 1.4 2-.8-4.1-2.1-8-2.9-8-.3 0-.5.1-.5.2zM226.6 685.7c3.9 10.4 14.6 32.3 15.5 31.7.5-.2 4.1 1.1 8.1 3 3.9 2 7.3 3.4 7.4 3.3.5-.4-3.4-15.8-4.1-16.5-.4-.4-.5.9 0 2.8.4 1.9 1 5.2 1.5 7.2l.7 3.7-3.3-1.4c-1.8-.7-5-2.5-7-3.9l-3.8-2.5 3 .2c2.8.2 2.9 0 2.9-3.8 0-3.9-.2-4.1-7.2-8.2-8.3-4.9-9.5-6.4-12.4-15-1.1-3.4-2.5-6.5-2.9-6.8-.5-.3.2 2.5 1.6 6.2zM168.1 681.6c0 1.1.3 1.4.6.6.3-.7.2-1.6-.1-1.9-.3-.4-.6.2-.5 1.3zM166.1 682.6c0 1.1.3 1.4.6.6.3-.7.2-1.6-.1-1.9-.3-.4-.6.2-.5 1.3zM251 683.5c0 .5.5 1.7 1 2.5s1 1 1 .5c0-.6-.5-1.7-1-2.5s-1-1.1-1-.5zM248.1 686.6c0 1.1.3 1.4.6.6.3-.7.2-1.6-.1-1.9-.3-.4-.6.2-.5 1.3zM642.7 704.5c-1.9 12-2 15.9-.7 19 .6 1.5.9.7.9-3.1.1-2.8.6-8.7 1.2-13.1 1.7-12.7.6-15-1.4-2.8zM170.4 697.2c.4 1.3 1.4 5.7 2.3 9.9l1.6 7.6-3.3 11.4c-1.8 6.3-5 16.3-7.1 22.3-2.9 8.4-3.6 11.3-2.7 12.3 1.6 1.9 6.3-8.5 12.2-26.7l4.5-14-3.1-12.5c-1.8-6.9-3.6-12.5-4.1-12.5-.5 0-.6 1-.3 2.2zM709.1 700.6c0 1.1.3 1.4.6.6.3-.7.2-1.6-.1-1.9-.3-.4-.6.2-.5 1.3zM707.2 710c-.7 2.9-1.1 5.5-.9 5.7.7.6 3-8.4 2.5-9.8-.2-.6-.9 1.2-1.6 4.1zM140.4 731.5c.3 1.6 1.1 5.6 1.8 8.7.6 3.2 1.5 5.8 1.8 5.8.8 0-2.7-16.1-3.7-17-.3-.3-.3.8.1 2.5zM179.4 740.7c-.4 1-2 3-3.6 4.5l-3 2.7 2.7.7c1.7.4 4 .1 6-.9 3-1.4 3.2-1.8 2.6-4.9-.8-3.7-3.7-5-4.7-2.1zM186.1 758.6c0 1.1.3 1.4.6.6.3-.7.2-1.6-.1-1.9-.3-.4-.6.2-.5 1.3zM188.1 766c0 .8.6 3.7 1.3 6.5.8 2.7 1.5 4.3 1.5 3.5 0-.8-.6-3.8-1.3-6.5-.8-2.8-1.5-4.3-1.5-3.5zM270.3 777.5c0 2.2.2 3 .4 1.7.2-1.2.2-3 0-4-.3-.9-.5.1-.4 2.3zM191.2 780c0 1.4.2 1.9.5 1.2.2-.6.2-1.8 0-2.5-.3-.6-.5-.1-.5 1.3zM277.4 793c0 5.2.1 7.4.3 4.7.2-2.6.2-6.8 0-9.5-.2-2.6-.3-.4-.3 4.8zM271.2 796.5l-.2 12-4.1 5c-2.3 2.8-4.4 5.1-4.8 5.3-.4.1-1.3-2.1-2-5-.8-2.9-2-6.4-2.8-7.8-.8-1.4-1.2-1.7-.9-.8.6 2 2.2 8.3 3 12.1.9 4 2.9 3.3 7.5-2.4 4.6-5.8 4.9-5.5 5.4 4.1.2 5 .3 4.4.4-2.5 0-5-.3-14.2-.7-20.5l-.7-11.5-.1 12zM393.4 806.5c0 7.2.1 9.9.3 6.2.2-3.7.2-9.6 0-13-.2-3.4-.3-.4-.3 6.8zM278.3 807.5c0 2.2.2 3 .4 1.7.2-1.2.2-3 0-4-.3-.9-.5.1-.4 2.3zM354.2 845c0 1.4.2 1.9.5 1.2.2-.6.2-1.8 0-2.5-.3-.6-.5-.1-.5 1.3z"/></svg>